<?xml version="1.0" standalone="no"?>
<!DOCTYPE svg PUBLIC "-//W3C//DTD SVG 20010904//EN"
 "http://www.w3.org/TR/2001/REC-SVG-20010904/DTD/svg10.dtd">
<svg version="1.0" xmlns="http://www.w3.org/2000/svg"
 width="300.000000pt" height="300.000000pt" viewBox="0 0 300.000000 300.000000"
 preserveAspectRatio="xMidYMid meet">
<metadata>
Created by potrace 1.11, written by Peter Selinger 2001-2013
</metadata>
<g transform="translate(0.000000,300.000000) scale(0.100000,-0.100000)"
fill="#000000" stroke="none">
<path d="M1285 2845 c-49 -8 -146 -32 -214 -54 -216 -71 -363 -163 -531 -331
-168 -168 -260 -315 -330 -530 -134 -408 -74 -837 168 -1204 26 -39 98 -123
162 -186 168 -168 315 -260 530 -330 283 -93 577 -93 860 0 215 70 362 162
530 330 168 168 260 315 330 530 93 283 93 577 0 860 -70 215 -162 362 -330
530 -168 168 -315 260 -530 330 -203 67 -430 86 -645 55z m1046 -441 c23 -159
-10 -266 -118 -371 l-54 -53 26 -47 c30 -57 31 -82 6 -132 -34 -66 -45 -67
-71 -9 -40 88 -126 155 -224 172 l-40 8 30 18 c39 25 132 41 177 30 34 -7 39
-5 64 24 14 17 40 60 57 96 30 63 31 69 31 208 l0 142 51 0 52 0 13 -86z
m-427 -503 c72 -35 132 -96 167 -167 31 -66 25 -177 -16 -259 -105 -212 -528
-486 -968 -627 l-102 -33 -215 0 c-210 0 -217 1 -297 28 -46 16 -92 36 -104
46 -22 18 -21 18 42 24 71 7 254 64 333 105 78 39 205 127 262 180 88 81 209
238 369 477 62 92 183 210 246 240 47 23 64 26 136 22 67 -3 93 -9 147 -36z"/>
<path d="M1690 1881 c-85 -26 -200 -139 -255 -251 -73 -147 -207 -319 -323
-417 -73 -60 -196 -145 -226 -156 -10 -4 -16 -10 -12 -14 9 -9 146 52 226 100
141 84 246 185 338 325 109 165 311 342 391 342 39 0 30 19 -23 49 -55 32 -72
35 -116 22z"/>
</g>
</svg>
